<svg width="101" height="101" viewBox="0 0 101 101" fill="none" xmlns="http://www.w3.org/2000/svg">
<circle cx="50.5" cy="50.5" r="49.5" fill="#FFFFFF" stroke="#242E3A" stroke-width="2"/>
<path d="M50.9471 25.8491C55.5978 25.8482 59.3312 27.0422 62.1472 29.431C64.9632 31.8198 66.3713 35.2329 66.3714 39.6703C66.3715 43.5529 65.0702 46.6252 62.4676 48.887C59.9076 51.1488 56.5156 52.3227 52.2916 52.4089L51.9717 57.0809L40.8997 57.083L40.5155 44.347L45.1235 44.3462C48.0248 44.3456 50.2435 44.0252 51.7795 43.3849C53.3154 42.702 54.0834 41.5072 54.0834 39.8005C54.0834 38.6485 53.7634 37.7526 53.1233 37.1127C52.526 36.4301 51.694 36.089 50.6273 36.0892C49.4327 36.0894 48.5153 36.4522 47.8753 37.1777C47.278 37.8604 46.9794 38.7992 46.9794 39.9938L35.1394 39.996C35.054 37.3934 35.5873 35.0253 36.7393 32.8917C37.9339 30.7155 39.7259 29.0085 42.1152 27.7707C44.5045 26.4903 47.4485 25.8497 50.9471 25.8491ZM46.532 74.8099C44.3134 74.8103 42.5214 74.2133 41.156 73.0189C39.8333 71.7818 39.172 70.2246 39.1719 68.3473C39.1719 66.4699 39.8332 64.9125 41.1558 63.6749C42.5211 62.4373 44.3131 61.8183 46.5318 61.8179C48.7078 61.8175 50.4571 62.4359 51.7798 63.6729C53.1452 64.91 53.8279 66.4672 53.8279 68.3446C53.828 70.1792 53.1453 71.7154 51.78 72.9529C50.4574 74.1905 48.708 74.8095 46.532 74.8099Z" fill="#242E3A"/>
</svg>
