<?xml version="1.0" encoding="iso-8859-1"?>
<!-- Uploaded to: SVG Repo, www.svgrepo.com, Generator: SVG Repo Mixer Tools -->
<svg height="800px" width="800px" version="1.1" id="Layer_1" xmlns="http://www.w3.org/2000/svg" xmlns:xlink="http://www.w3.org/1999/xlink" 
	 viewBox="0 0 512 512" xml:space="preserve">
<g transform="translate(1 1)">
	<polygon style="fill:#FFDD09;" points="255,88.6 391.533,361.667 118.467,361.667 	"/>
	<polygon style="fill:#FD9808;" points="255,88.6 242.2,114.2 365.933,361.667 391.533,361.667 	"/>
	<g>
		<path style="fill:#FFDD09;" d="M357.4,506.733c-3.413,0-5.973-1.707-7.68-5.12c-1.707-4.267,0-9.387,4.267-11.093
			c85.333-38.4,139.947-124.587,139.947-217.6c0-131.413-107.52-238.933-238.933-238.933S16.067,141.507,16.067,272.92
			c0,75.947,35.84,144.213,98.987,189.44c3.413,2.56,5.12,7.68,1.707,11.947c-2.56,3.413-7.68,5.12-11.947,1.707
			C37.4,428.227-1,353.987-1,272.92c0-140.8,115.2-256,256-256s256,115.2,256,256c0,99.84-58.88,192-150.187,232.96
			C359.96,506.733,358.253,506.733,357.4,506.733z"/>
		<polygon style="fill:#FFDD09;" points="127,429.933 161.133,489.667 92.867,481.133 		"/>
	</g>
	<path d="M391.533,370.2H118.467c-2.56,0-5.973-1.707-7.68-4.267s-1.707-5.973,0-8.533L247.32,84.333
		c2.56-5.973,11.947-5.973,15.36,0L399.213,357.4c1.707,2.56,0.853,5.973,0,8.533C398.36,368.493,394.093,370.2,391.533,370.2z
		 M132.12,353.133h245.76L255,107.373L132.12,353.133z"/>
	<path d="M255,293.4c-5.12,0-8.533-3.413-8.533-8.533V191c0-5.12,3.413-8.533,8.533-8.533s8.533,3.413,8.533,8.533v93.867
		C263.533,289.987,260.12,293.4,255,293.4z"/>
	<path d="M263.533,319c0,5.12-3.413,8.533-8.533,8.533s-8.533-3.413-8.533-8.533c0-5.12,3.413-8.533,8.533-8.533
		S263.533,313.88,263.533,319"/>
	<path d="M357.4,493.08c-3.413,0-5.973-1.707-7.68-5.12c-1.707-4.267,0-9.387,4.267-11.093
		c85.333-38.4,139.947-123.733,139.947-217.6c0-131.413-107.52-238.933-238.933-238.933S16.067,127.853,16.067,259.267
		c0,75.947,35.84,144.213,98.987,189.44c3.413,2.56,5.12,7.68,1.707,11.947c-2.56,3.413-7.68,5.12-11.947,1.707
		C37.4,414.573-1,340.333-1,259.267c0-140.8,115.2-256,256-256s256,115.2,256,256c0,99.84-58.88,192-150.187,232.96
		C359.96,493.08,358.253,493.08,357.4,493.08z"/>
	<path d="M161.133,498.2h-0.853l-68.267-8.533c-2.56,0-5.12-2.56-6.827-5.12c-0.853-2.56-0.853-5.973,0.853-8.533l34.133-51.2
		c1.707-2.56,4.267-4.267,7.68-3.413c2.56,0,5.973,1.707,6.827,4.267l34.133,59.733c1.707,2.56,1.707,5.973,0,9.387
		C166.253,496.493,163.693,498.2,161.133,498.2z M107.373,474.307l37.547,5.12l-18.773-33.28L107.373,474.307z"/>
</g>
</svg>